#!OML:ASF I:\Actors\actors\Patient Classification 1\Patient 1\Session 1\Subject1.ASF
:FULLY-SPECIFIED
:DEGREES
1009
root 0.467695 17.5266 9.58519 12.8938 -5.17713 -10.1813
lowerback 0.227672 3.73207 8.56426
upperback -8.23968 5.55424 1.47108
thorax -8.21977 2.19721 -3.5733
lowerneck -15.6289 -3.10759 -1.13878
upperneck 23.9248 -5.62871 5.78808
head 10.4578 -2.00288 1.48331
rclavicle 1.46355e-014 -3.18055e-015
rhumerus 26.336 50.9128 -61.1206
rradius 76.728
rwrist 8.48859
rhand 19.0832 -42.4561
rfingers 7.12502
rthumb 43.6801 -66.4572
lclavicle 1.46355e-014 -3.18055e-015
lhumerus -22.3863 -28.4413 91.9283
lradius 93.242
lwrist -30.1275
lhand -21.0516 -28.3868
lfingers 7.12502
lthumb 5.32457 1.52632
rfemur -6.36513 25.0733 26.0552
rtibia 2.05821
rfoot -11.5643 -23.5234
rtoes 1.02616
lfemur 6.4669 -50.973 -12.0006
ltibia -4.69823
lfoot -45.5052 59.0176
ltoes 25.158
1010
root 0.464968 17.5242 9.59988 12.8183 -4.72495 -10.2494
lowerback 0.159958 3.49538 8.44343
upperback -8.19136 5.22697 1.57501
thorax -8.18353 2.05159 -3.37518
lowerneck -15.6841 -3.09865 -1.02165
upperneck 24.0834 -5.61662 5.6259
head 10.5169 -2.00134 1.40776
rclavicle 4.09993e-015 -3.97569e-016
rhumerus 25.5185 50.8511 -60.8462
rradius 77.908
rwrist 9.09252
rhand 18.5846 -42.2959
rfingers 7.12502
rthumb 43.2143 -66.4657
lclavicle 4.09993e-015 -3.97569e-016
lhumerus -22.4292 -28.0564 91.8304
lradius 93.3407
lwrist -30.317
lhand -21.1117 -28.4779
lfingers 7.12502
lthumb 5.26645 1.4367
rfemur -6.16236 25.0132 26.2585
rtibia 2.01491
rfoot -11.7479 -23.8601
rtoes 1.34384
lfemur 6.3903 -50.8379 -11.7555
ltibia -4.78095
lfoot -44.4081 58.8603
ltoes 24.7338
1011
root 0.461571 17.5216 9.616 12.7204 -4.18873 -10.2848
lowerback 0.0811038 3.27513 8.24964
upperback -8.15564 4.91762 1.6641
thorax -8.15322 1.91886 -3.15338
lowerneck -15.5615 -3.1426 -1.07949
upperneck 24.0643 -5.6833 5.70663
head 10.4934 -2.0308 1.4384
rclavicle -3.08862e-014 2.78299e-015
rhumerus 24.1725 50.6923 -60.5117
rradius 79.5718
rwrist 9.47659
rhand 18.192 -42.4014
rfingers 7.12502
rthumb 42.8472 -66.7011
lclavicle -3.08862e-014 2.78299e-015
lhumerus -22.455 -27.8658 91.786
lradius 93.3653
lwrist -30.5446
lhand -21.3134 -28.6021
lfingers 7.12502
lthumb 5.0717 1.31719
rfemur -5.93598 24.878 26.4489
rtibia 1.97976
rfoot -11.9327 -24.2266
rtoes 1.59519
lfemur 6.32802 -50.7823 -11.55
ltibia -4.86885
lfoot -43.3617 58.6903
ltoes 24.0952
1012
root 0.457324 17.5193 9.63539 12.645 -3.55794 -10.287
lowerback -0.0466304 3.0617 8.03497
upperback -8.14483 4.61068 1.71232
thorax -8.11637 1.78693 -2.96096
lowerneck -15.3826 -3.21988 -1.19216
upperneck 23.9698 -5.81247 5.92051
head 10.4407 -2.08113 1.51731
rclavicle -7.8023e-015 2.74323e-014
rhumerus 22.3825 50.4603 -60.1528
rradius 81.654
rwrist 9.77299
rhand 17.8927 -42.857
rfingers 7.12502
rthumb 42.5672 -67.2541
lclavicle -7.8023e-015 2.74323e-014
lhumerus -22.4373 -27.9386 91.7159
lradius 93.472
lwrist -30.4554
lhand -21.3765 -28.865
lfingers 7.12502
lthumb 5.01078 1.05578
rfemur -5.70098 24.845 26.6227
rtibia 1.93389
rfoot -12.2274 -24.8074
rtoes 1.89929
lfemur 6.2566 -50.9836 -11.3908
ltibia -4.91492
lfoot -42.4971 58.6553
ltoes 23.3941
1013
root 0.450848 17.5177 9.65336 12.5863 -2.81683 -10.2725
lowerback -0.178704 2.83873 7.75255
upperback -8.17189 4.29118 1.76138
thorax -8.12108 1.65107 -2.73086
lowerneck -15.2324 -3.32632 -1.26819
upperneck 23.9803 -5.98375 6.07119
head 10.4309 -2.15185 1.56213
rclavicle 2.4202e-014 2.5842e-014
rhumerus 20.1259 50.1502 -59.8663
rradius 83.926
rwrist 10.1499
rhand 17.5273 -43.1218
rfingers 7.12502
rthumb 42.225 -67.636
lclavicle 2.4202e-014 2.5842e-014
lhumerus -22.4468 -28.1146 91.696
lradius 93.6018
lwrist -30.2434
lhand -21.301 -28.9888
lfingers 7.12502
lthumb 5.08377 0.930173
rfemur -5.49534 24.9194 26.7888
rtibia 1.89758
rfoot -12.6324 -25.58
rtoes 2.51983
lfemur 5.91496 -50.9126 -10.986
ltibia -4.9464
lfoot -40.7972 58.4582
ltoes 22.3111
1014
root 0.4439 17.5177 9.66753 12.542 -1.95617 -10.323
lowerback -0.237731 2.62587 7.48318
upperback -8.25749 4.00098 1.84554
thorax -8.22943 1.52514 -2.47771
lowerneck -15.1603 -3.49348 -1.35736
upperneck 24.1764 -6.23747 6.16575
head 10.5065 -2.26167 1.57808
rclavicle 3.23025e-016 2.70347e-014
rhumerus 17.2666 49.7333 -59.8233
rradius 86.2978
rwrist 10.4173
rhand 17.1299 -43.1077
rfingers 7.12502
rthumb 41.8526 -67.747
lclavicle 3.23025e-016 2.70347e-014
lhumerus -22.5221 -28.3436 91.8419
lradius 93.6165
lwrist -30.2603
lhand -21.241 -28.9628
lfingers 7.12502
lthumb 5.14165 0.954825
rfemur -5.36031 24.9736 27.0341
rtibia 1.92453
rfoot -13.0884 -26.429
rtoes 3.33684
lfemur 5.30828 -50.5537 -10.2409
ltibia -4.99247
lfoot -38.465 57.9991
ltoes 20.7444
1015
root 0.440218 17.5181 9.68705 12.4641 -1.06948 -10.3526
lowerback -0.33977 2.45634 7.22468
upperback -8.30511 3.7632 1.93441
thorax -8.26224 1.42885 -2.22474
lowerneck -15.2099 -3.71932 -1.59904
upperneck 24.468 -6.56498 6.34204
head 10.6536 -2.40396 1.63732
rclavicle 3.68e-014 -3.97569e-015
rhumerus 14.0588 49.2752 -59.8217
rradius 88.7956
rwrist 10.3744
rhand 16.5832 -43.061
rfingers 7.12502
rthumb 41.3397 -67.8684
lclavicle 3.68e-014 -3.97569e-015
lhumerus -22.4945 -28.6747 92.0581
lradius 93.5553
lwrist -30.3984
lhand -21.152 -29.0478
lfingers 7.12502
lthumb 5.2276 0.867691
rfemur -5.15613 24.9562 27.2809
rtibia 1.94379
rfoot -13.6078 -27.248
rtoes 4.2141
lfemur 4.87667 -50.3372 -9.694
ltibia -5.04753
lfoot -36.4607 57.5492
ltoes 19.2068
1016
root 0.438639 17.5179 9.71286 12.33 -0.182094 -10.3456
lowerback -0.4635 2.29507 6.9979
upperback -8.2988 3.53144 2.00788
thorax -8.21706 1.33652 -2.00383
lowerneck -15.2196 -3.93539 -1.97423
upperneck 24.6047 -6.86716 6.64918
head 10.7472 -2.53611 1.76886
rclavicle 2.38542e-014 4.77083e-015
rhumerus 10.7121 48.7979 -59.8977
rradius 91.3178
rwrist 10.0863
rhand 16.152 -43.6147
rfingers 7.12502
rthumb 40.9349 -68.5517
lclavicle 2.38542e-014 4.77083e-015
lhumerus -22.4433 -29.0399 92.2273
lradius 93.6106
lwrist -30.3577
lhand -20.9913 -29.26
lfingers 7.12502
lthumb 5.38275 0.651608
rfemur -4.8043 24.9056 27.5224
rtibia 1.85763
rfoot -14.0385 -28.0464
rtoes 4.79391
lfemur 4.65649 -50.2076 -9.38371
ltibia -5.11374
lfoot -34.5713 57.1309
ltoes 17.7639
1017
root 0.437949 17.5168 9.73948 12.1921 0.756177 -10.3675
lowerback -0.552914 2.09209 6.87963
upperback -8.2928 3.25243 2.09142
thorax -8.19073 1.21262 -1.83133
lowerneck -15.1658 -4.08086 -2.21808
upperneck 24.5761 -7.04221 6.77979
head 10.7497 -2.62497 1.83259
rclavicle 3.26504e-014 -2.0276e-014
rhumerus 7.32661 48.2336 -60.3002
rradius 93.593
rwrist 9.78525
rhand 16.255 -44.3192
rfingers 7.12502
rthumb 41.0317 -69.2255
lclavicle 3.26504e-014 -2.0276e-014
lhumerus -22.4904 -29.3124 92.3696
lradius 93.7802
lwrist -30.2595
lhand -20.9424 -29.4575
lfingers 7.12502
lthumb 5.42996 0.452976
rfemur -4.42707 24.8286 27.8027
rtibia 1.73432
rfoot -14.408 -28.837
rtoes 5.27214
lfemur 4.37497 -50.0652 -9.00266
ltibia -5.1451
lfoot -32.5377 56.6668
ltoes 16.2028
